# xmcd
#
# Track frame offsets: 
#        150
#        16738
#        31510
#        49650
#        62360
#        85678
#        116045
#        130668
#        153880
#        167390
#        178785
#        197255
#        209120
#        225270
#        241284
#        259315
#        272113
#        291630
#        312483
#        324938
#
# Disc length: 4458 seconds
#
# Revision: 1
# Processed by: cddbd v1.5.2PL0 Copyright (c) Steve Scherf et al.
# Submitted via: ExactAudioCopy v1.0b4
#
DISCID=06116814
DTITLE=Varios - Festivais
DYEAR=2005
DGENRE=MPB
TTITLE0=Domingo no Parque - Gilberto Gil
TTITLE1=Ponteio - Edu Lobo, Marília Medalha, Momento Quatro e Quarteto
TTITLE1=Novo
TTITLE2=Disparada - Jair Rodrigues
TTITLE3=Alegria, Alegria - Caetano Veloso
TTITLE4=A Massa - Raimundo Sodré
TTITLE5=Pra Não Dizer que Não Falei das Flores (ao vivo) - Geraldo Van
TTITLE5=dré
TTITLE6=Let Me Sing, Let Me Sing - Raul Seixas
TTITLE7=Caminhante Nuturno - Os Mutantes
TTITLE8=BR-3 - Tony Tornado
TTITLE9=Fato Consumado - Djavan
TTITLE10=A Estrada e o Violeiro - Nara Leão e Sidney Miller
TTITLE11=Gabriela - MPB-4
TTITLE12=O Amor É o Meu País - Ivan Lins
TTITLE13=Flor Lilás - Luli and Lucinha
TTITLE14=Escrito nas Estrelas - Tetê Espíndola
TTITLE15=Margarida - Gutemberg Guarabyra
TTITLE16=Divino Maravilhoso - Gal Costa
TTITLE17=Eu Quero É Botar Meu Bloco na Rua - Sérgio Sampaio
TTITLE18=Arrastão - Elis Regina
TTITLE19=A Banda - Nara Leão
EXTD=
EXTT0=
EXTT1=
EXTT2=
EXTT3=
EXTT4=
EXTT5=
EXTT6=
EXTT7=
EXTT8=
EXTT9=
EXTT10=
EXTT11=
EXTT12=
EXTT13=
EXTT14=
EXTT15=
EXTT16=
EXTT17=
EXTT18=
EXTT19=
PLAYORDER=
